<svg xmlns="http://www.w3.org/2000/svg" viewBox="0 0 64 64" role="img" aria-label="OH YOU BIN game developer favicon">
  <rect width="64" height="64" rx="14" fill="#06060c"/>

  <!-- Gamepad outline -->
  <path d="M20 26h24c6.1 0 11 4.9 11 11v2c0 6.1-4.9 11-11 11-3.6 0-6.9-1.8-8.9-4.8L32 41l-3.1 4.2c-2 3-5.3 4.8-8.9 4.8-6.1 0-11-4.9-11-11v-2c0-6.1 4.9-11 11-11Z"
        fill="none" stroke="#ffffff" stroke-width="3.2" stroke-linecap="round" stroke-linejoin="round"/>

  <!-- D-pad -->
  <path d="M20.5 35.5h7.5" stroke="#ffffff" stroke-width="3.2" stroke-linecap="round"/>
  <path d="M24.25 31.75v7.5" stroke="#ffffff" stroke-width="3.2" stroke-linecap="round"/>

  <!-- Buttons -->
  <circle cx="42.5" cy="33" r="1.9" fill="#ffffff"/>
  <circle cx="46.8" cy="35.5" r="1.9" fill="#ffffff"/>
  <circle cx="44.3" cy="39.8" r="1.9" fill="#ffffff"/>
</svg>
